<svg width="400" height="40" viewBox="0 0 400 40" fill="none" xmlns="http://www.w3.org/2000/svg">
<rect opacity="0.2" x="0.5" y="0.5" width="399" height="39" rx="7.5" fill="white" stroke="#213F7D"/>
<path d="M344 0H392C396.418 0 400 3.58172 400 8V32C400 36.4183 396.418 40 392 40H344V0Z" fill="#39CDCC"/>
<path d="M370.354 13.0006C368.94 13.0215 367.591 13.5936 366.591 14.5955C365.572 15.6165 365 17.0011 365 18.4448C365 19.8885 365.572 21.2731 366.591 22.294C367.515 23.2183 368.741 23.7782 370.043 23.8714C371.345 23.9645 372.638 23.5847 373.683 22.8014L377.874 27L378.972 25.9002L374.78 21.7001C375.561 20.6526 375.94 19.3582 375.848 18.0536C375.755 16.7491 375.197 15.5215 374.275 14.5955C373.761 14.0805 373.149 13.6739 372.476 13.4C371.802 13.126 371.081 12.9902 370.354 13.0006ZM370.489 14.556C371.499 14.5709 372.463 14.9796 373.177 15.6953C373.905 16.4246 374.314 17.4136 374.314 18.4448C374.314 19.476 373.905 20.465 373.177 21.1942C372.449 21.9233 371.462 22.3329 370.433 22.3329C369.404 22.3329 368.417 21.9233 367.689 21.1942C366.961 20.465 366.552 19.476 366.552 18.4448C366.552 17.4136 366.961 16.4246 367.689 15.6953C368.056 15.3274 368.493 15.0371 368.974 14.8414C369.455 14.6457 369.97 14.5487 370.489 14.556Z" fill="white"/>
<path opacity="0.7" d="M24.48 15.62C25.292 15.62 25.992 15.788 26.58 16.124C27.168 16.4507 27.658 16.936 28.05 17.58L27.112 18.308C26.7667 17.7107 26.3747 17.2907 25.936 17.048C25.5067 16.796 24.984 16.67 24.368 16.67C23.6213 16.67 23.0753 16.8193 22.73 17.118C22.3847 17.4167 22.212 17.7807 22.212 18.21C22.212 18.5367 22.3147 18.826 22.52 19.078C22.7253 19.3207 23.136 19.512 23.752 19.652L25.754 20.1C26.6407 20.296 27.2567 20.5947 27.602 20.996C27.9567 21.388 28.134 21.878 28.134 22.466C28.134 22.9887 27.9847 23.4553 27.686 23.866C27.3967 24.2673 26.986 24.58 26.454 24.804C25.922 25.028 25.2967 25.14 24.578 25.14C23.5793 25.14 22.7533 24.944 22.1 24.552C21.4467 24.1507 20.9473 23.6653 20.602 23.096L21.582 22.298C21.8527 22.83 22.2353 23.264 22.73 23.6C23.234 23.9267 23.8733 24.09 24.648 24.09C25.3667 24.09 25.9313 23.9593 26.342 23.698C26.762 23.4367 26.972 23.0587 26.972 22.564C26.972 22.2653 26.874 21.9993 26.678 21.766C26.482 21.5233 26.1133 21.3413 25.572 21.22L23.402 20.73C22.5433 20.5433 21.932 20.24 21.568 19.82C21.2133 19.4 21.036 18.9147 21.036 18.364C21.036 17.8693 21.1713 17.4167 21.442 17.006C21.722 16.586 22.1187 16.25 22.632 15.998C23.1547 15.746 23.7707 15.62 24.48 15.62ZM33.1968 25.14C32.5341 25.14 31.9414 24.9953 31.4188 24.706C30.9054 24.4167 30.5041 24.0013 30.2148 23.46C29.9254 22.9093 29.7808 22.256 29.7808 21.5C29.7808 20.744 29.9254 20.0953 30.2148 19.554C30.5041 19.0033 30.9008 18.5833 31.4048 18.294C31.9088 18.0047 32.4828 17.86 33.1268 17.86C33.7801 17.86 34.3354 18 34.7928 18.28C35.2594 18.56 35.6141 18.9427 35.8568 19.428C36.0994 19.904 36.2208 20.4407 36.2208 21.038C36.2208 21.1967 36.2161 21.3413 36.2068 21.472C36.1974 21.6027 36.1834 21.7193 36.1647 21.822H30.8868C30.9428 22.5593 31.1714 23.1333 31.5728 23.544C31.9741 23.9547 32.5061 24.16 33.1688 24.16C33.6821 24.16 34.0974 24.062 34.4148 23.866C34.7414 23.67 35.0028 23.404 35.1988 23.068L36.0808 23.586C35.8194 24.062 35.4414 24.44 34.9468 24.72C34.4614 25 33.8781 25.14 33.1968 25.14ZM33.0988 18.84C32.5108 18.84 32.0254 19.0173 31.6428 19.372C31.2694 19.7173 31.0314 20.2027 30.9288 20.828H35.1008C35.0728 20.1933 34.8768 19.7033 34.5128 19.358C34.1488 19.0127 33.6774 18.84 33.0988 18.84ZM42.4388 20.478C42.4388 19.9553 42.2988 19.554 42.0188 19.274C41.7388 18.9847 41.3422 18.84 40.8288 18.84C40.3435 18.84 39.9328 18.9473 39.5968 19.162C39.2608 19.3673 39.0135 19.7033 38.8548 20.17L37.9448 19.61C38.1315 19.0873 38.4768 18.6673 38.9808 18.35C39.4848 18.0233 40.1102 17.86 40.8568 17.86C41.3608 17.86 41.8182 17.9487 42.2288 18.126C42.6395 18.294 42.9615 18.5553 43.1948 18.91C43.4375 19.2553 43.5588 19.7033 43.5588 20.254V23.642C43.5588 23.978 43.7362 24.146 44.0908 24.146C44.2682 24.146 44.4408 24.1227 44.6088 24.076L44.5528 24.958C44.3662 25.0513 44.1235 25.098 43.8248 25.098C43.4795 25.098 43.1808 25.014 42.9288 24.846C42.6862 24.678 42.5275 24.4213 42.4528 24.076C42.2102 24.44 41.8788 24.7107 41.4588 24.888C41.0388 25.056 40.6235 25.14 40.2128 25.14C39.8022 25.14 39.4195 25.07 39.0648 24.93C38.7102 24.79 38.4255 24.58 38.2108 24.3C38.0055 24.0107 37.9028 23.656 37.9028 23.236C37.9028 22.7133 38.0755 22.284 38.4208 21.948C38.7755 21.6027 39.2655 21.3693 39.8908 21.248L42.4388 20.744V20.478ZM39.0508 23.18C39.0508 23.4693 39.1628 23.7073 39.3868 23.894C39.6202 24.0713 39.9468 24.16 40.3668 24.16C40.7308 24.16 41.0668 24.0993 41.3748 23.978C41.6922 23.8473 41.9488 23.656 42.1448 23.404C42.3408 23.1427 42.4388 22.8113 42.4388 22.41V21.668L40.4088 22.088C39.9515 22.1813 39.6108 22.312 39.3868 22.48C39.1628 22.648 39.0508 22.8813 39.0508 23.18ZM46.2805 25V18H47.1905L47.3445 19.148C47.7365 18.2893 48.4832 17.86 49.5845 17.86C49.7058 17.86 49.8365 17.8693 49.9765 17.888C50.1258 17.9067 50.2518 17.944 50.3545 18L50.1585 19.022C50.0558 18.9847 49.9438 18.9567 49.8225 18.938C49.7012 18.9193 49.5285 18.91 49.3045 18.91C49.0152 18.91 48.7212 18.994 48.4225 19.162C48.1332 19.33 47.8905 19.5867 47.6945 19.932C47.4985 20.268 47.4005 20.6973 47.4005 21.22V25H46.2805ZM54.6746 17.86C55.3933 17.86 55.9906 18.028 56.4666 18.364C56.9426 18.6907 57.3113 19.1433 57.5726 19.722L56.5086 20.226C56.3593 19.778 56.1306 19.4373 55.8226 19.204C55.5239 18.9613 55.1319 18.84 54.6466 18.84C53.9466 18.84 53.3959 19.078 52.9946 19.554C52.6026 20.0207 52.4066 20.6693 52.4066 21.5C52.4066 22.3307 52.6026 22.984 52.9946 23.46C53.3959 23.9267 53.9466 24.16 54.6466 24.16C55.1973 24.16 55.6359 24.034 55.9626 23.782C56.2893 23.53 56.5039 23.1753 56.6066 22.718L57.6426 23.082C57.4093 23.726 57.0406 24.23 56.5366 24.594C56.0419 24.958 55.4213 25.14 54.6746 25.14C54.0213 25.14 53.4379 24.9953 52.9246 24.706C52.4113 24.4167 52.0099 24.0013 51.7206 23.46C51.4313 22.9093 51.2866 22.256 51.2866 21.5C51.2866 20.744 51.4313 20.0953 51.7206 19.554C52.0099 19.0033 52.4113 18.5833 52.9246 18.294C53.4379 18.0047 54.0213 17.86 54.6746 17.86ZM59.6106 25V14.78H60.7306V19.05C60.9733 18.63 61.2953 18.3267 61.6966 18.14C62.0979 17.9533 62.5366 17.86 63.0126 17.86C63.5166 17.86 63.9739 17.958 64.3846 18.154C64.7953 18.3407 65.1219 18.63 65.3646 19.022C65.6166 19.414 65.7426 19.9133 65.7426 20.52V25H64.6226V20.912C64.6226 20.1373 64.4546 19.6007 64.1186 19.302C63.7919 18.994 63.3859 18.84 62.9006 18.84C62.5646 18.84 62.2286 18.9193 61.8926 19.078C61.5566 19.2367 61.2766 19.498 61.0526 19.862C60.8379 20.2167 60.7306 20.6927 60.7306 21.29V25H59.6106ZM76.7943 18V18.966H74.4563V25H73.3363V18.966H71.9363V18H73.3363V16.824C73.3363 16.1987 73.5276 15.69 73.9103 15.298C74.2929 14.906 74.8669 14.71 75.6323 14.71C75.8749 14.71 76.1036 14.738 76.3183 14.794C76.5329 14.85 76.7009 14.9293 76.8223 15.032L76.5283 15.942C76.3043 15.802 76.0383 15.732 75.7303 15.732C75.3289 15.732 75.0163 15.83 74.7923 16.026C74.5683 16.2127 74.4563 16.516 74.4563 16.936V18H76.7943ZM80.993 17.86C81.6556 17.86 82.239 18.0047 82.743 18.294C83.2563 18.5833 83.6576 19.0033 83.947 19.554C84.2363 20.0953 84.381 20.744 84.381 21.5C84.381 22.256 84.2363 22.9093 83.947 23.46C83.6576 24.0013 83.2563 24.4167 82.743 24.706C82.239 24.9953 81.6556 25.14 80.993 25.14C80.3396 25.14 79.7563 24.9953 79.243 24.706C78.7296 24.4167 78.3283 24.0013 78.039 23.46C77.7496 22.9093 77.605 22.256 77.605 21.5C77.605 20.744 77.7496 20.0953 78.039 19.554C78.3283 19.0033 78.7296 18.5833 79.243 18.294C79.7563 18.0047 80.3396 17.86 80.993 17.86ZM80.993 18.826C80.2836 18.826 79.7283 19.064 79.327 19.54C78.9256 20.016 78.725 20.6693 78.725 21.5C78.725 22.3307 78.9256 22.984 79.327 23.46C79.7283 23.936 80.2836 24.174 80.993 24.174C81.7023 24.174 82.2576 23.936 82.659 23.46C83.0603 22.984 83.261 22.3307 83.261 21.5C83.261 20.6693 83.0603 20.016 82.659 19.54C82.2576 19.064 81.7023 18.826 80.993 18.826ZM86.4895 25V18H87.3995L87.5535 19.148C87.9455 18.2893 88.6922 17.86 89.7935 17.86C89.9148 17.86 90.0455 17.8693 90.1855 17.888C90.3348 17.9067 90.4608 17.944 90.5635 18L90.3675 19.022C90.2648 18.9847 90.1528 18.9567 90.0315 18.938C89.9102 18.9193 89.7375 18.91 89.5135 18.91C89.2242 18.91 88.9302 18.994 88.6315 19.162C88.3422 19.33 88.0995 19.5867 87.9035 19.932C87.7075 20.268 87.6095 20.6973 87.6095 21.22V25H86.4895ZM100.736 20.478C100.736 19.9553 100.596 19.554 100.316 19.274C100.036 18.9847 99.639 18.84 99.1257 18.84C98.6404 18.84 98.2297 18.9473 97.8937 19.162C97.5577 19.3673 97.3104 19.7033 97.1517 20.17L96.2417 19.61C96.4284 19.0873 96.7737 18.6673 97.2777 18.35C97.7817 18.0233 98.407 17.86 99.1537 17.86C99.6577 17.86 100.115 17.9487 100.526 18.126C100.936 18.294 101.258 18.5553 101.492 18.91C101.734 19.2553 101.856 19.7033 101.856 20.254V23.642C101.856 23.978 102.033 24.146 102.388 24.146C102.565 24.146 102.738 24.1227 102.906 24.076L102.85 24.958C102.663 25.0513 102.42 25.098 102.122 25.098C101.776 25.098 101.478 25.014 101.226 24.846C100.983 24.678 100.824 24.4213 100.75 24.076C100.507 24.44 100.176 24.7107 99.7557 24.888C99.3357 25.056 98.9204 25.14 98.5097 25.14C98.099 25.14 97.7164 25.07 97.3617 24.93C97.007 24.79 96.7224 24.58 96.5077 24.3C96.3024 24.0107 96.1997 23.656 96.1997 23.236C96.1997 22.7133 96.3724 22.284 96.7177 21.948C97.0724 21.6027 97.5624 21.3693 98.1877 21.248L100.736 20.744V20.478ZM97.3477 23.18C97.3477 23.4693 97.4597 23.7073 97.6837 23.894C97.917 24.0713 98.2437 24.16 98.6637 24.16C99.0277 24.16 99.3637 24.0993 99.6717 23.978C99.989 23.8473 100.246 23.656 100.442 23.404C100.638 23.1427 100.736 22.8113 100.736 22.41V21.668L98.7057 22.088C98.2484 22.1813 97.9077 22.312 97.6837 22.48C97.4597 22.648 97.3477 22.8813 97.3477 23.18ZM104.577 25V18H105.557L105.627 19.092C105.87 18.6533 106.201 18.3407 106.621 18.154C107.041 17.958 107.494 17.86 107.979 17.86C108.483 17.86 108.941 17.958 109.351 18.154C109.762 18.3407 110.089 18.63 110.331 19.022C110.583 19.414 110.709 19.9133 110.709 20.52V25H109.589V20.912C109.589 20.1373 109.421 19.6007 109.085 19.302C108.759 18.994 108.353 18.84 107.867 18.84C107.531 18.84 107.195 18.9193 106.859 19.078C106.523 19.2367 106.243 19.4933 106.019 19.848C105.805 20.2027 105.697 20.6787 105.697 21.276V25H104.577ZM118.808 18L115.518 26.176C115.247 26.8573 114.939 27.3333 114.594 27.604C114.258 27.8747 113.843 28.01 113.348 28.01C113.031 28.01 112.737 27.9633 112.466 27.87C112.205 27.786 111.971 27.6693 111.766 27.52L112.074 26.54C112.261 26.708 112.457 26.8293 112.662 26.904C112.877 26.988 113.087 27.03 113.292 27.03C113.535 27.03 113.763 26.9553 113.978 26.806C114.193 26.6567 114.389 26.3533 114.566 25.896L114.93 24.986L114.23 23.32L112.004 18H113.278L115.028 22.564L115.462 23.81L115.966 22.424L117.604 18H118.808ZM124.473 18V18.966H121.925V23.068C121.925 23.4133 122.023 23.67 122.219 23.838C122.415 24.006 122.667 24.09 122.975 24.09C123.245 24.09 123.479 24.0433 123.675 23.95C123.871 23.8567 124.048 23.7307 124.207 23.572L124.599 24.51C124.384 24.706 124.127 24.86 123.829 24.972C123.539 25.084 123.203 25.14 122.821 25.14C122.466 25.14 122.135 25.0793 121.827 24.958C121.519 24.8273 121.271 24.6267 121.085 24.356C120.907 24.076 120.814 23.712 120.805 23.264V18.966H119.405V18H120.805V16.32L121.925 16.012V18H124.473ZM126.138 25V14.78H127.258V19.05C127.501 18.63 127.823 18.3267 128.224 18.14C128.625 17.9533 129.064 17.86 129.54 17.86C130.044 17.86 130.501 17.958 130.912 18.154C131.323 18.3407 131.649 18.63 131.892 19.022C132.144 19.414 132.27 19.9133 132.27 20.52V25H131.15V20.912C131.15 20.1373 130.982 19.6007 130.646 19.302C130.319 18.994 129.913 18.84 129.428 18.84C129.092 18.84 128.756 18.9193 128.42 19.078C128.084 19.2367 127.804 19.498 127.58 19.862C127.365 20.2167 127.258 20.6927 127.258 21.29V25H126.138ZM135.366 16.656C135.114 16.656 134.909 16.5813 134.75 16.432C134.601 16.2733 134.526 16.068 134.526 15.816C134.526 15.564 134.601 15.3633 134.75 15.214C134.909 15.0553 135.114 14.976 135.366 14.976C135.618 14.976 135.819 15.0553 135.968 15.214C136.127 15.3633 136.206 15.564 136.206 15.816C136.206 16.068 136.127 16.2733 135.968 16.432C135.819 16.5813 135.618 16.656 135.366 16.656ZM135.926 18V25H134.806V18H135.926ZM138.525 25V18H139.505L139.575 19.092C139.817 18.6533 140.149 18.3407 140.569 18.154C140.989 17.958 141.441 17.86 141.927 17.86C142.431 17.86 142.888 17.958 143.299 18.154C143.709 18.3407 144.036 18.63 144.279 19.022C144.531 19.414 144.657 19.9133 144.657 20.52V25H143.537V20.912C143.537 20.1373 143.369 19.6007 143.033 19.302C142.706 18.994 142.3 18.84 141.815 18.84C141.479 18.84 141.143 18.9193 140.807 19.078C140.471 19.2367 140.191 19.4933 139.967 19.848C139.752 20.2027 139.645 20.6787 139.645 21.276V25H138.525ZM150.959 24.104C151.621 24.104 152.139 24.258 152.513 24.566C152.886 24.8647 153.073 25.266 153.073 25.77C153.073 26.2273 152.919 26.624 152.611 26.96C152.312 27.296 151.906 27.5527 151.393 27.73C150.889 27.9167 150.319 28.01 149.685 28.01C148.583 28.01 147.757 27.8233 147.207 27.45C146.665 27.0767 146.395 26.6287 146.395 26.106C146.395 25.7887 146.483 25.4993 146.661 25.238C146.838 24.9767 147.132 24.79 147.543 24.678C147.319 24.5753 147.137 24.4353 146.997 24.258C146.857 24.0713 146.787 23.824 146.787 23.516C146.787 23.2267 146.871 22.9653 147.039 22.732C147.207 22.4893 147.459 22.3027 147.795 22.172C147.44 21.9667 147.169 21.696 146.983 21.36C146.796 21.024 146.703 20.646 146.703 20.226C146.703 19.7593 146.824 19.3487 147.067 18.994C147.319 18.6393 147.659 18.364 148.089 18.168C148.518 17.9627 149.013 17.86 149.573 17.86C150.161 17.86 150.688 17.9767 151.155 18.21C151.22 17.7433 151.425 17.3793 151.771 17.118C152.125 16.8473 152.541 16.712 153.017 16.712H153.087L153.339 17.706H153.241C152.811 17.706 152.475 17.7853 152.233 17.944C151.99 18.1027 151.855 18.35 151.827 18.686C152.237 19.1153 152.443 19.6287 152.443 20.226C152.443 20.6833 152.321 21.094 152.079 21.458C151.836 21.8127 151.495 22.0927 151.057 22.298C150.627 22.494 150.133 22.592 149.573 22.592C149.227 22.592 148.905 22.5593 148.607 22.494C148.327 22.578 148.126 22.6947 148.005 22.844C147.883 22.9933 147.823 23.1567 147.823 23.334C147.823 23.8473 148.187 24.104 148.915 24.104H150.959ZM149.573 18.77C149.087 18.77 148.681 18.9053 148.355 19.176C148.028 19.4373 147.865 19.7873 147.865 20.226C147.865 20.6553 148.028 21.0053 148.355 21.276C148.681 21.5467 149.087 21.682 149.573 21.682C150.058 21.682 150.464 21.5467 150.791 21.276C151.117 21.0053 151.281 20.6553 151.281 20.226C151.281 19.7873 151.117 19.4373 150.791 19.176C150.464 18.9053 150.058 18.77 149.573 18.77ZM149.671 27.072C150.483 27.072 151.08 26.9507 151.463 26.708C151.845 26.4747 152.037 26.204 152.037 25.896C152.037 25.644 151.934 25.4433 151.729 25.294C151.533 25.1447 151.173 25.07 150.651 25.07H148.495C148.196 25.07 147.944 25.1447 147.739 25.294C147.533 25.4527 147.431 25.6673 147.431 25.938C147.431 26.2833 147.627 26.5587 148.019 26.764C148.42 26.9693 148.971 27.072 149.671 27.072Z" fill="#545F7D"/>
</svg>
